<?xml version="1.0" standalone="no"?><!DOCTYPE svg PUBLIC "-//W3C//DTD SVG 1.1//EN" "http://www.w3.org/Graphics/SVG/1.1/DTD/svg11.dtd"><svg t="1706274899933" class="icon" viewBox="0 0 1024 1024" version="1.1" xmlns="http://www.w3.org/2000/svg" p-id="4020" width="64" height="64" xmlns:xlink="http://www.w3.org/1999/xlink"><path d="M633.904762 558.545455h-22.164502v-66.493507h22.164502v66.493507z m-22.164502-332.467533h22.164502v66.493507h-22.164502v-66.493507z m22.164502 199.48052h-22.164502v-66.493507h22.164502v66.493507z m-310.30303 199.480519h22.164502v66.493507h-22.164502v-66.493507z m22.164502 199.48052h-22.164502v-66.493507h22.164502v66.493507z m576.277056-310.303031h-44.329004V53.194805L633.904762 115.255411v44.329005h-22.164502v-44.329005l-219.428572-55.411255-46.545454 210.56277v19.948052h-4.432901l-15.515151 66.493507h19.948052v66.493506h-22.164502v-53.194805l-11.082251 53.194805 35.463203 4.432901 265.974026 166.233766 22.164502 2.21645v93.090909h-22.164502V664.935065l-265.974026-166.233766v59.844156h-22.164502v-64.277057l-26.597403-4.4329L212.779221 875.497835l121.904762-31.030303V842.251082h4.4329v2.21645l159.584416 39.896104v44.329005l-161.800866-39.896104-137.419914 33.246753v4.4329l-8.8658-2.21645-139.636364 35.463204-6.649351-24.380953H35.463203v-864.415584h28.813853L336.900433 2.21645V0h4.4329v2.21645l281.489178 70.926407L877.714286 8.865801V4.4329h22.164502l13.298701-4.4329v2.21645h8.865801v512zM79.792208 908.744589l62.060606-15.515152 90.874459-412.25974-150.718615-22.164502V908.744589H79.792208zM79.792208 110.822511v279.272727l166.233766 24.380952 79.792208-365.714285L79.792208 110.822511z m531.948052 647.203463h22.164502v66.493507h-22.164502v-66.493507z m0 199.48052v-22.164503l199.480519-199.480519 88.658009 88.658009-199.48052 199.480519h-88.658008v-66.493506z m310.30303-73.142858z m-22.164502-237.160173l88.658009 88.658009-44.329005 44.329004-88.658008-88.658008 44.329004-44.329005z" fill="#52C0E2" p-id="4021"></path></svg>