<?xml version="1.0" standalone="no"?><!DOCTYPE svg PUBLIC "-//W3C//DTD SVG 1.1//EN" "http://www.w3.org/Graphics/SVG/1.1/DTD/svg11.dtd"><svg t="1706260288089" class="icon" viewBox="0 0 1024 1024" version="1.1" xmlns="http://www.w3.org/2000/svg" p-id="8044" xmlns:xlink="http://www.w3.org/1999/xlink" width="32" height="32"><path d="M478 546m-388 0a388 388 0 1 0 776 0 388 388 0 1 0-776 0Z" fill="#FF6B6B" p-id="8045"></path><path d="M478 546m-310.4 0a310.4 310.4 0 1 0 620.8 0 310.4 310.4 0 1 0-620.8 0Z" fill="#EDF2FF" p-id="8046"></path><path d="M478 546m-232.8 0a232.8 232.8 0 1 0 465.6 0 232.8 232.8 0 1 0-465.6 0Z" fill="#5C7CFA" p-id="8047"></path><path d="M478 546m-155.2 0a155.2 155.2 0 1 0 310.4 0 155.2 155.2 0 1 0-310.4 0Z" fill="#EDF2FF" p-id="8048"></path><path d="M478 546m-77.6 0a77.6 77.6 0 1 0 155.2 0 77.6 77.6 0 1 0-155.2 0Z" fill="#FF6B6B" p-id="8049"></path><path d="M822.68 92.76L716.2 199.62a9.34 9.34 0 0 0-2.68 5.72l-8.7 91.28a9.3 9.3 0 0 0 15.84 7.48l106.48-106.86a9.34 9.34 0 0 0 2.68-5.72l8.7-91.28a9.3 9.3 0 0 0-15.84-7.48z" fill="#FCC419" p-id="8050"></path><path d="M720.66 304l106.48-106.86a9.28 9.28 0 0 1 5.7-2.7l90.96-8.72a9.34 9.34 0 0 1 7.46 15.88l-106.48 106.86a9.28 9.28 0 0 1-5.7 2.7L728.12 320a9.34 9.34 0 0 1-7.46-16z" fill="#FAB005" p-id="8051"></path><path d="M482 566a19.86 19.86 0 0 1-14-5.82 20 20 0 0 1 0-28.32L814.62 181.48a20 20 0 1 1 28.32 28.24L496.12 560a19.86 19.86 0 0 1-14.12 6z" fill="#495057" p-id="8052"></path></svg>