<?xml version="1.0" standalone="no"?><!DOCTYPE svg PUBLIC "-//W3C//DTD SVG 1.1//EN" "http://www.w3.org/Graphics/SVG/1.1/DTD/svg11.dtd"><svg t="1762429614894" class="icon" viewBox="0 0 1024 1024" version="1.1" xmlns="http://www.w3.org/2000/svg" p-id="5198" xmlns:xlink="http://www.w3.org/1999/xlink" width="200" height="200"><path d="M599.061868 216.612433 936.943248 216.612433c11.447726 0 20.729114-9.281387 20.729114-20.729114 0-11.447726-9.281387-20.729114-20.729114-20.729114L599.061868 175.154205c-11.447726 0-20.729114 9.281387-20.729114 20.729114C578.332754 207.330022 587.614142 216.612433 599.061868 216.612433z" fill="#272636" p-id="5199"></path><path d="M936.943248 332.694241 599.061868 332.694241c-11.447726 0-20.729114 9.281387-20.729114 20.729114 0 11.447726 9.281387 20.729114 20.729114 20.729114L936.943248 374.152469c11.447726 0 20.729114-9.281387 20.729114-20.729114C957.672362 341.975629 948.390975 332.694241 936.943248 332.694241z" fill="#272636" p-id="5200"></path><path d="M366.897228 65.290005 180.336228 65.290005c-62.966077 0-114.009613 51.043536-114.009613 114.009613l0 186.561c0 62.966077 51.043536 114.009613 114.009613 114.009613l186.561 0c62.966077 0 114.009613-51.043536 114.009613-114.009613L480.906841 179.299619C480.906841 116.334565 429.862281 65.290005 366.897228 65.290005zM439.448614 365.860619c0 40.068578-32.482809 72.551386-72.551386 72.551386L180.336228 438.412005c-40.068578 0-72.551386-32.482809-72.551386-72.551386L107.784842 179.299619c0-40.068578 32.482809-72.551386 72.551386-72.551386l186.561 0c40.068578 0 72.551386 32.482809 72.551386 72.551386L439.448614 365.860619z" fill="#272636" p-id="5201"></path><path d="M936.943248 653.992945 599.061868 653.992945c-11.447726 0-20.729114 9.281387-20.729114 20.729114s9.281387 20.729114 20.729114 20.729114L936.943248 695.451172c11.447726 0 20.729114-9.281387 20.729114-20.729114S948.390975 653.992945 936.943248 653.992945z" fill="#272636" p-id="5202"></path><path d="M936.943248 811.534004 599.061868 811.534004c-11.447726 0-20.729114 9.281387-20.729114 20.729114s9.281387 20.729114 20.729114 20.729114L936.943248 852.992231c11.447726 0 20.729114-9.281387 20.729114-20.729114S948.390975 811.534004 936.943248 811.534004z" fill="#272636" p-id="5203"></path><path d="M366.897228 544.129768 180.336228 544.129768c-62.966077 0-114.009613 51.043536-114.009613 114.009613l0 186.561c0 62.966077 51.043536 114.009613 114.009613 114.009613l186.561 0c62.966077 0 114.009613-51.043536 114.009613-114.009613L480.906841 658.139381C480.906841 595.173304 429.862281 544.129768 366.897228 544.129768zM439.448614 844.699358c0 40.068578-32.482809 72.551386-72.551386 72.551386L180.336228 917.250744c-40.068578 0-72.551386-32.482809-72.551386-72.551386L107.784842 658.139381c0-40.068578 32.482809-72.551386 72.551386-72.551386l186.561 0c40.068578 0 72.551386 32.482809 72.551386 72.551386L439.448614 844.699358z" fill="#272636" p-id="5204"></path></svg>