<?xml version="1.0" standalone="no"?><!DOCTYPE svg PUBLIC "-//W3C//DTD SVG 1.1//EN" "http://www.w3.org/Graphics/SVG/1.1/DTD/svg11.dtd"><svg t="1706276410873" class="icon" viewBox="0 0 1024 1024" version="1.1" xmlns="http://www.w3.org/2000/svg" p-id="30849" xmlns:xlink="http://www.w3.org/1999/xlink" width="64" height="64"><path d="M863.968 913.232a4.536 4.536 0 0 1-4.544 4.528H152.984a4.544 4.544 0 0 1-4.552-4.528V362.536c0-2.504 2.04-4.536 4.552-4.536h706.44c2.504 0 4.544 2.032 4.544 4.536v550.696z" fill="#3C4047" p-id="30850"></path><path d="M819.256 321.472H506.192v-44.72a44.72 44.72 0 0 0-44.72-44.72h-268.32a44.72 44.72 0 0 0-44.72 44.72v178.888a44.72 44.72 0 0 1 44.72-44.72h626.104a44.72 44.72 0 0 1 44.712 44.72V366.184a44.72 44.72 0 0 0-44.712-44.712z" fill="#3C4047" p-id="30851"></path><path d="M251.872 358h563.472v483.768H251.872V358z" fill="#CCCCCC" p-id="30852"></path><path d="M669.88 125.536l10.304 29.864c43.008-15.904 90.016-11.896 132.352 11.312 42.608 23.352 75.44 63.32 92.424 112.536l27.848-10.304c-19.64-56.888-57.688-103.136-107.136-130.248-49.728-27.232-105.056-31.92-155.792-13.16z" fill="#2A2E33" p-id="30853"></path><path d="M858.344 259.536l87.48 81.192 20.68-119.624z" fill="#2A2E33" p-id="30854"></path><path d="M195.544 407.952h593.808v470.048H195.544V407.952z" fill="#DBDBDB" p-id="30855"></path><path d="M863.968 902.848a44.728 44.728 0 0 1-44.712 44.712H193.152a44.72 44.72 0 0 1-44.72-44.712l128-367.216a44.72 44.72 0 0 1 44.72-44.72h626.104a44.72 44.72 0 0 1 44.712 44.72l-128 367.216z" fill="#E5CB5E" p-id="30856"></path></svg>