<?xml version="1.0" standalone="no"?><!DOCTYPE svg PUBLIC "-//W3C//DTD SVG 1.1//EN" "http://www.w3.org/Graphics/SVG/1.1/DTD/svg11.dtd"><svg t="1706364624320" class="icon" viewBox="0 0 1024 1024" version="1.1" xmlns="http://www.w3.org/2000/svg" p-id="30058" width="32" height="32" xmlns:xlink="http://www.w3.org/1999/xlink"><path d="M830.8 264l-3.1-3.1c-15.1-15.1-39.6-15.1-54.7 0L329.1 704.7c-15.1 15.1-15.1 39.6 0 54.7l3.1 3.1c8.7 8.7 20.6 12.4 31.9 11l477.6-477.6c1.4-11.4-2.2-23.2-10.9-31.9z" fill="#2E97FF" p-id="30059"></path><path d="M926.1 97.8c-40-40-80.5-37.8-107.4-28.9-28.1 9.3-46.9 27.9-47.7 28.7L165.9 702.8s0 0.1-0.1 0.1l-0.9 0.9c0 0.1-0.1 0.1-0.1 0.2-0.2 0.3-0.5 0.6-0.7 0.9 0 0.1-0.1 0.1-0.1 0.2-0.2 0.3-0.4 0.7-0.6 1.1 0 0.1-0.1 0.2-0.1 0.2-0.2 0.3-0.3 0.7-0.5 1 0 0.1-0.1 0.1-0.1 0.2-0.1 0.3-0.3 0.7-0.4 1L96.2 911.1c-1.7 5.3-0.3 11.1 3.6 15 2.8 2.8 6.5 4.2 10.3 4.2 1.6 0 3.2-0.3 4.7-0.8l200.6-68c0.2-0.1 0.4-0.1 0.6-0.2 0.1 0 0.2-0.1 0.3-0.1 0.4-0.1 0.7-0.3 1-0.5 0.1-0.1 0.3-0.1 0.4-0.2 0.3-0.2 0.6-0.4 0.9-0.5 0.1-0.1 0.2-0.1 0.2-0.2 0.3-0.2 0.6-0.4 0.9-0.7 0.1-0.1 0.2-0.1 0.3-0.2 0.3-0.3 0.7-0.6 1-0.9h0.1l605.2-605.2c0.8-0.8 19.3-19.5 28.7-47.7 8.9-26.8 11.1-67.2-28.9-107.3z m-144.7 30.9l106.2 106.2 7.6 7.6-53.4 53.4-477.6 477.6-53.5 53.5L197 713.2l584.4-584.5zM177.7 877.3l-29.9-29.9 34.9-107 100.9 100.9-105.9 36z m749.7-682.2c-3.3 10.2-8.3 19-12.7 25.5L803.4 109.2c6.4-4.4 15.2-9.4 25.5-12.7 27.4-8.8 53.1-1.3 76.5 22.1 23.3 23.4 30.8 49.1 22 76.5z" fill="" p-id="30060"></path></svg>