<?xml version="1.0" standalone="no"?><!DOCTYPE svg PUBLIC "-//W3C//DTD SVG 1.1//EN" "http://www.w3.org/Graphics/SVG/1.1/DTD/svg11.dtd"><svg t="1753754099320" class="icon" viewBox="0 0 1024 1024" version="1.1" xmlns="http://www.w3.org/2000/svg" p-id="1518" xmlns:xlink="http://www.w3.org/1999/xlink" width="200" height="200"><path d="M64 64v751.5h383v-57.8H320.8V642.1h-64.2v115.6h-75.3V526.5h293.3V703H768V64H64z m205.3 292.1c-50 0-90.8-40.3-90.8-89.8V121.8h474.8v144.5c0 49.5-40.7 89.8-90.8 89.8H269.3z" fill="#80559F" p-id="1519"></path><path d="M384 640v320h576V640H384z m512 256H448V704h448v192z" fill="#B2B2B2" p-id="1520"></path><path d="M513 745h64.2v116H513zM640.9 745h64.2v116h-64.2zM768.8 745H833v116h-64.2z" fill="#B2B2B2" p-id="1521"></path></svg>