<?xml version="1.0" standalone="no"?><!DOCTYPE svg PUBLIC "-//W3C//DTD SVG 1.1//EN" "http://www.w3.org/Graphics/SVG/1.1/DTD/svg11.dtd"><svg t="1706275581618" class="icon" viewBox="0 0 1024 1024" version="1.1" xmlns="http://www.w3.org/2000/svg" p-id="22739" width="128" height="128" xmlns:xlink="http://www.w3.org/1999/xlink"><path d="M812.732919 723.767772l0.242222 0.241182-300.285247 299.991046-284.175944-283.896298C141.8568 662.432665 87.325732 549.708096 87.325732 424.245576 87.325732 189.941311 277.456246 0 511.993377 0S936.661022 189.941311 936.661022 424.245576a422.692446 422.692446 0 0 1-123.928103 299.522196zM573.973022 383.494115h106.698136c-33.786288-121.367622-145.167722-210.436592-277.379183-210.436592a287.872684 287.872684 0 0 0-86.97734 13.37833A286.79984 286.79984 0 0 1 500.834546 119.551479C651.816628 119.551479 775.630377 235.716012 787.731066 383.494115h87.351588C854.619599 201.069994 699.880481 59.25595 511.993377 59.25595 314.630519 59.25595 153.841057 215.732203 146.847815 411.391193l136.456058-136.37601 156.463778 156.370215-1.190317 1.189278H331.880238c33.786288 121.367622 145.167722 210.436592 277.378143 210.436592a287.873724 287.873724 0 0 0 86.978379-13.37833A286.79984 286.79984 0 0 1 511.716849 696.517312C360.734767 696.517312 236.921018 580.351739 224.820329 432.574676H146.685641c4.206133 198.163334 166.14225 357.510901 365.307736 357.5109 201.811213 0 365.411694-163.60256 365.411694-365.411694 0-10.246082-0.44286-20.387166-1.270364-30.420134l-146.892382 146.8009-156.45858-156.371255z" fill="#388565" p-id="22740"></path></svg>