<?xml version="1.0" standalone="no"?><!DOCTYPE svg PUBLIC "-//W3C//DTD SVG 1.1//EN" "http://www.w3.org/Graphics/SVG/1.1/DTD/svg11.dtd"><svg t="1706275383078" class="icon" viewBox="0 0 1024 1024" version="1.1" xmlns="http://www.w3.org/2000/svg" p-id="21575" xmlns:xlink="http://www.w3.org/1999/xlink" width="64" height="64"><path d="M371.0976 221.9008L147.0464 318.976a27.06432 27.06432 0 0 0-16.2816 24.832v523.264c0 19.456 19.968 32.5632 37.8368 24.832l202.5472-87.7568V221.9008zM855.4496 238.2848l-202.5472 87.7568V908.288l224.0512-97.0752a27.06432 27.06432 0 0 0 16.2816-24.832V263.1168c0-19.5072-19.9168-32.5632-37.7856-24.832z" fill="#7BD3FF" p-id="21576"></path><path d="M371.0976 221.9008l281.8048 104.1408V908.288l-281.8048-104.192z" fill="#F5D126" p-id="21577"></path><path d="M546.048 868.7616l106.8544 39.5264V326.0416l-106.8544-39.4752z" fill="#F2B200" p-id="21578"></path><path d="M855.4496 238.2848l-54.9888 23.808V844.288l76.4928-33.1776a27.06432 27.06432 0 0 0 16.2816-24.832V263.1168c0-19.5072-19.9168-32.5632-37.7856-24.832zM333.312 238.2848l-54.9888 23.808V844.288l76.4928-33.1776a27.06432 27.06432 0 0 0 16.2816-24.832V263.1168c0-19.5072-19.9168-32.5632-37.7856-24.832z" fill="#59B3EA" p-id="21579"></path><path d="M157.7984 909.4656c-8.1408 0-16.2304-2.3552-23.2448-6.9632a42.35264 42.35264 0 0 1-19.1488-35.4304V343.808c0-16.896 10.0352-32.2048 25.5488-38.912l224.0512-97.0752c4.7616-2.048 10.1888-1.5872 14.5408 1.28 4.3008 2.816 6.912 7.68 6.912 12.8512v582.1952c0 6.144-3.6352 11.6736-9.2672 14.08l-202.5472 87.7568c-5.376 2.3552-11.1616 3.4816-16.8448 3.4816zM355.7376 245.2992L153.1392 333.1072a11.7248 11.7248 0 0 0-7.0656 10.752v523.264c0 5.6832 3.6864 8.7552 5.2736 9.7792 1.5872 1.024 5.8368 3.2256 11.0592 0.9728l193.28-83.7632V245.2992zM652.9024 923.648c-2.9696 0-5.888-0.8704-8.448-2.5088-4.3008-2.816-6.912-7.68-6.912-12.8512V326.0416c0-6.144 3.6352-11.6736 9.2672-14.08l202.5472-87.7568a42.2912 42.2912 0 0 1 40.1408 3.4816 42.35264 42.35264 0 0 1 19.1488 35.4304v523.264c0 16.896-10.0352 32.2048-25.5488 38.912l-224.0512 97.0752c-1.9968 0.8192-4.096 1.28-6.144 1.28z m15.36-587.52v548.7616l202.5984-87.808a11.7248 11.7248 0 0 0 7.0656-10.752V263.1168c0-5.6832-3.6864-8.7552-5.2736-9.7792s-5.8368-3.2256-11.0592-0.9728l-193.3312 83.7632z" fill="#333333" p-id="21580"></path><path d="M652.9024 923.648c-1.792 0-3.584-0.3072-5.3248-0.9728l-281.7536-104.1408a15.31904 15.31904 0 0 1-10.0352-14.3872V221.9008a15.35488 15.35488 0 0 1 20.6848-14.3872l281.7536 104.1408c6.0416 2.2016 10.0352 7.9872 10.0352 14.3872V908.288c0 5.0176-2.4576 9.728-6.6048 12.5952-2.6112 1.792-5.6832 2.7648-8.7552 2.7648z m-266.4448-130.2528l251.0336 92.8256V336.7424L386.4576 243.968v549.4272z" fill="#333333" p-id="21581"></path><path d="M691.2512 282.3168c0-99.9936-81.0496-181.0432-181.0432-181.0432S329.216 182.3232 329.216 282.3168c0 91.7504 83.9168 213.0944 160.6144 275.4048 11.4176 9.2672 28.0064 8.448 38.656-1.6384 84.736-80.2304 162.7648-180.48 162.7648-273.7664z" fill="#FF6950" p-id="21582"></path><path d="M510.2592 101.2736c-11.6224 0-23.04 1.1264-34.048 3.2256 83.712 15.9232 146.9952 89.4464 146.9952 177.7664 0 88.4736-70.2464 183.2448-149.76 261.2224 5.4784 5.0176 11.008 9.7792 16.4352 14.1824 11.4176 9.2672 28.0064 8.448 38.656-1.6384 84.6848-80.2304 162.7648-180.48 162.7648-273.7664-0.0512-99.9424-81.1008-180.992-181.0432-180.992z" fill="#F4403B" p-id="21583"></path><path d="M508.16 579.5328c-9.9328 0-19.8656-3.2768-27.9552-9.8816C398.4384 503.2448 313.856 377.6 313.856 282.3168c0-108.288 88.1152-196.4032 196.4032-196.4032s196.4032 88.1152 196.4032 196.4032c0 104.3456-91.0848 212.5312-167.5264 284.928a45.17376 45.17376 0 0 1-30.976 12.288z m2.0992-462.8992c-91.3408 0-165.6832 74.2912-165.6832 165.6832 0 84.992 80.4352 202.9568 154.9824 263.5264 5.376 4.352 13.2608 3.9936 18.432-0.8704 72.0384-68.2496 157.952-169.216 157.952-262.6048-0.0512-91.4432-74.3424-165.7344-165.6832-165.7344z" fill="#333333" p-id="21584"></path><path d="M510.2592 363.3664c-43.2128 0-78.336-35.1232-78.336-78.336s35.1232-78.336 78.336-78.336 78.336 35.1232 78.336 78.336-35.1744 78.336-78.336 78.336z m0-125.952c-26.2656 0-47.616 21.3504-47.616 47.616s21.3504 47.616 47.616 47.616 47.616-21.3504 47.616-47.616-21.4016-47.616-47.616-47.616zM191.488 612.7616c-8.4992 0-15.36-6.8608-15.36-15.36V489.984c0-8.4992 6.8608-15.36 15.36-15.36s15.36 6.8608 15.36 15.36v107.4688c0 8.448-6.8608 15.3088-15.36 15.3088zM191.488 456.7552c-8.4992 0-15.36-6.8608-15.36-15.36v-14.5408c0-8.4992 6.8608-15.36 15.36-15.36s15.36 6.8608 15.36 15.36v14.5408c0 8.4992-6.8608 15.36-15.36 15.36z" fill="#FFFFFF" p-id="21585"></path></svg>