<?xml version="1.0" standalone="no"?><!DOCTYPE svg PUBLIC "-//W3C//DTD SVG 1.1//EN" "http://www.w3.org/Graphics/SVG/1.1/DTD/svg11.dtd"><svg t="1706255343512" class="icon" viewBox="0 0 1024 1024" version="1.1" xmlns="http://www.w3.org/2000/svg" p-id="14731" xmlns:xlink="http://www.w3.org/1999/xlink" width="32" height="32"><path d="M265.3 414.5l461.1-190.4c32.8-13.5 66.6 16.9 56.7 50.9L637.6 772.8c-10.8 37-61.5 41.4-78.5 6.8l-94.8-192.9c-4.5-9.2-12.2-16.4-21.7-20.4l-177.4-73.7c-34.7-14.5-34.7-63.7 0.1-78.1z" fill="#03BD61" p-id="14732"></path><path d="M654.2 965.1c-14.5 0-27.9-8.2-34.4-21.4L445.2 588.4 112.7 450.3c-14.3-6-23.6-19.9-23.6-35.4s9.4-29.5 23.7-35.4L881.9 61.8c13.6-5.6 29.3-2.9 40.2 6.9 11 9.8 15.3 25.1 11.2 39.3L691 937.5a38.1 38.1 0 0 1-33.5 27.4c-1.1 0.1-2.2 0.2-3.3 0.2zM227.6 415L488 523.2c8.6 3.6 15.6 10.1 19.7 18.5l137.5 279.7 192.3-658.2L227.6 415z" fill="#23202D" p-id="14733"></path></svg>