<?xml version="1.0" standalone="no"?><!DOCTYPE svg PUBLIC "-//W3C//DTD SVG 1.1//EN" "http://www.w3.org/Graphics/SVG/1.1/DTD/svg11.dtd"><svg t="1753083013321" class="icon" viewBox="0 0 1024 1024" version="1.1" xmlns="http://www.w3.org/2000/svg" p-id="18096" width="48" height="48" xmlns:xlink="http://www.w3.org/1999/xlink"><path d="M512 255.488c95.744 0 174.08 78.336 174.08 174.08 0 41.984-14.848 82.432-42.496 113.664l-129.536 130.048L380.416 542.72c-29.696-34.304-44.544-77.824-41.984-122.88 2.048-41.984 19.968-81.92 49.664-112.64s69.632-49.152 111.616-51.712h12.288m0-51.2c-5.12 0-10.752 0-15.872 0.512-112.64 7.68-203.264 99.84-208.896 212.48-3.072 58.368 16.896 116.224 55.808 160.256l154.112 150.016c4.608 4.608 11.264 6.656 17.408 6.656 6.656 0 12.8-2.048 17.408-7.168l148.48-150.016c36.352-40.96 56.32-93.696 56.32-148.48 0.512-123.392-100.352-224.256-224.768-224.256z" fill="#333C4F" p-id="18097"></path><path d="M399.36 525.312c-24.576-28.672-37.376-66.048-35.328-103.936 3.584-73.216 64.512-135.168 137.216-140.288 3.584-0.512 6.656-0.512 10.752-0.512 81.92 0 148.48 66.56 148.48 148.48 0 35.84-12.8 69.632-35.84 96.768l-110.592 111.616L399.36 525.312z" fill="#64EDAC" p-id="18098"></path><path d="M512 818.688c-133.12 0-275.456-31.232-275.456-100.352 0-33.792 31.232-59.904 93.696-78.336 13.312-3.584 27.648 3.584 31.744 17.408 4.096 13.312-3.584 27.648-17.408 31.744-41.472 12.288-54.784 25.088-56.832 29.184 6.144 14.336 81.408 49.664 224.256 49.664s218.112-35.328 224.256-49.664c-2.048-4.096-16.896-18.944-64.512-31.232-13.824-3.584-22.016-17.408-17.92-31.232 3.584-13.824 17.408-22.016 31.232-17.92 84.48 22.528 102.4 56.32 102.4 80.896 0.512 68.608-142.336 99.84-275.456 99.84z m224.768-99.84zM512 479.744c-41.984 0-76.8-34.304-76.8-76.8s34.304-76.8 76.8-76.8 76.8 34.304 76.8 76.8-34.304 76.8-76.8 76.8z m0-101.888c-14.336 0-25.6 11.264-25.6 25.6s11.264 25.6 25.6 25.6 25.6-11.264 25.6-25.6-11.264-25.6-25.6-25.6z" fill="#333C4F" p-id="18099"></path></svg>