<?xml version="1.0" standalone="no"?><!DOCTYPE svg PUBLIC "-//W3C//DTD SVG 1.1//EN" "http://www.w3.org/Graphics/SVG/1.1/DTD/svg11.dtd"><svg t="1753081782427" class="icon" viewBox="0 0 1024 1024" version="1.1" xmlns="http://www.w3.org/2000/svg" p-id="1774" width="64" height="64" xmlns:xlink="http://www.w3.org/1999/xlink"><path d="M517.736 341.692c114.257 114.256 114.257 299.502 0 413.759L340.66 932.56l25.934-0.125 17.153-0.179 0.474 36.569-17.32 0.18-37.758 0.138v-25.106l-18.286 18.293-206.88-206.88c-114.255-114.256-114.255-299.502 0-413.758 114.257-114.256 299.503-114.256 413.76 0z m-25.47 586.403l2.686 36.473c-13.83 1.018-28.366 1.845-43.756 2.499l-11.704 0.459-1.316-36.548c19.346-0.696 37.283-1.645 54.09-2.883z m105.749-14.959l8.546 35.559c-14.163 3.404-29.401 6.31-45.803 8.767l-9.981 1.421-4.897-36.242c19.075-2.577 36.414-5.727 52.135-9.505z m90.07-42.602l25.384 26.327c-12.237 11.8-27.1 21.844-44.554 30.327l-6.667 3.108-14.93-33.385c16.692-7.465 30.243-16.23 40.767-26.377z m65.037-90.254c1.597 20.038 0.278 38.42-3.975 55.194l-1.733 6.215-34.984-10.656c3.745-12.295 5.322-26.2 4.61-41.882l-0.374-5.964 36.456-2.907z m-29.387-109.668a549.076 549.076 0 0 0 4.263 11.837l5.707 15.206a441.962 441.962 0 0 1 5.93 17.497l2.573 8.495-35.12 10.2c-2.224-7.655-4.819-15.585-7.787-23.787l-5.58-14.86-2.332-6.364-2.204-6.235 34.55-11.989z m-412.878-250.04c-70.692 0-128 57.307-128 128 0 70.692 57.308 128 128 128 70.693 0 128-57.308 128-128 0-70.693-57.307-128-128-128z m357.24 147.9l36.546 1.354c-0.482 12.996 0.69 27.452 3.552 43.351l1.33 6.902-35.826 7.348c-4.382-21.364-6.268-41.008-5.602-58.956z m62.957-107.28l17.303 32.22c-12.862 6.906-22.69 15.736-29.747 26.621l-2.517 4.18-31.928-17.836c10.646-19.058 26.402-34.183 46.89-45.185z m244.744-339.847c64.27 64.269 64.27 168.47 0 232.739l-116.37 116.37-19.2-19.217 0.073 24.193c-13.91 0.03-26.752 0.815-38.516 2.343l-6.93 1.006-5.813-36.106c12.114-1.95 25.115-3.15 39.01-3.605l-84.993-84.984c-64.27-64.27-64.27-168.47 0-232.74 64.27-64.268 168.47-64.268 232.74 0z m-116.37 43.226c-40.395 0-73.142 32.748-73.142 73.143 0 40.396 32.747 73.143 73.143 73.143 40.395 0 73.142-32.747 73.142-73.143 0-40.395-32.747-73.143-73.142-73.143z" fill="#1296db" p-id="1775"></path></svg>