<?xml version="1.0" standalone="no"?><!DOCTYPE svg PUBLIC "-//W3C//DTD SVG 1.1//EN" "http://www.w3.org/Graphics/SVG/1.1/DTD/svg11.dtd"><svg t="1706276734827" class="icon" viewBox="0 0 1024 1024" version="1.1" xmlns="http://www.w3.org/2000/svg" p-id="33211" xmlns:xlink="http://www.w3.org/1999/xlink" width="64" height="64"><path d="M128 85.333333c-25.6 0-42.666667 17.066667-42.666667 42.666667v213.333333c0 25.6-17.066667 42.666667-42.666666 42.666667s-42.666667-17.066667-42.666667-42.666667V128c0-72.533333 55.466667-128 128-128h213.333333c25.6 0 42.666667 17.066667 42.666667 42.666667s-17.066667 42.666667-42.666667 42.666666H128zM896 85.333333c25.6 0 42.666667 17.066667 42.666667 42.666667v213.333333c0 25.6 17.066667 42.666667 42.666666 42.666667s42.666667-17.066667 42.666667-42.666667V128c0-72.533333-55.466667-128-128-128h-213.333333c-25.6 0-42.666667 17.066667-42.666667 42.666667s17.066667 42.666667 42.666667 42.666666h213.333333zM128 938.666667c-25.6 0-42.666667-17.066667-42.666667-42.666667v-213.333333c0-25.6-17.066667-42.666667-42.666666-42.666667s-42.666667 17.066667-42.666667 42.666667v213.333333c0 72.533333 55.466667 128 128 128h213.333333c25.6 0 42.666667-17.066667 42.666667-42.666667s-17.066667-42.666667-42.666667-42.666666H128zM896 938.666667c25.6 0 42.666667-17.066667 42.666667-42.666667v-213.333333c0-25.6 17.066667-42.666667 42.666666-42.666667s42.666667 17.066667 42.666667 42.666667v213.333333c0 72.533333-55.466667 128-128 128h-213.333333c-25.6 0-42.666667-17.066667-42.666667-42.666667s17.066667-42.666667 42.666667-42.666666h213.333333zM512 298.666667c-119.466667 0-213.333333 93.866667-213.333333 213.333333s93.866667 213.333333 213.333333 213.333333 213.333333-93.866667 213.333333-213.333333-93.866667-213.333333-213.333333-213.333333z m0 341.333333c-72.533333 0-128-55.466667-128-128s55.466667-128 128-128 128 55.466667 128 128-55.466667 128-128 128z" fill="#8a8a8a" p-id="33212"></path><path d="M554.666667 512c0 25.6-17.066667 42.666667-42.666667 42.666667s-42.666667-17.066667-42.666667-42.666667 17.066667-42.666667 42.666667-42.666667 42.666667 17.066667 42.666667 42.666667z" fill="#8a8a8a" p-id="33213"></path><path d="M512 213.333333c25.6 0 42.666667 17.066667 42.666667 42.666667v85.333333c0 25.6-17.066667 42.666667-42.666667 42.666667s-42.666667-17.066667-42.666667-42.666667V256c0-25.6 17.066667-42.666667 42.666667-42.666667zM512 640c25.6 0 42.666667 17.066667 42.666667 42.666667v85.333333c0 25.6-17.066667 42.666667-42.666667 42.666667s-42.666667-17.066667-42.666667-42.666667v-85.333333c0-25.6 17.066667-42.666667 42.666667-42.666667zM640 512c0-25.6 17.066667-42.666667 42.666667-42.666667h85.333333c25.6 0 42.666667 17.066667 42.666667 42.666667s-17.066667 42.666667-42.666667 42.666667h-85.333333c-25.6 0-42.666667-17.066667-42.666667-42.666667zM213.333333 512c0-25.6 17.066667-42.666667 42.666667-42.666667h85.333333c25.6 0 42.666667 17.066667 42.666667 42.666667s-17.066667 42.666667-42.666667 42.666667H256c-25.6 0-42.666667-17.066667-42.666667-42.666667z" fill="#8a8a8a" p-id="33214"></path></svg>