<?xml version="1.0" standalone="no"?><!DOCTYPE svg PUBLIC "-//W3C//DTD SVG 1.1//EN" "http://www.w3.org/Graphics/SVG/1.1/DTD/svg11.dtd"><svg t="1706252422546" class="icon" viewBox="0 0 1024 1024" version="1.1" xmlns="http://www.w3.org/2000/svg" p-id="4620" xmlns:xlink="http://www.w3.org/1999/xlink" width="32" height="32"><path d="M940.809299 333.581448c-23.391756-57.684794-57.752332-109.431342-102.126982-153.805992-44.37465-44.37465-96.124268-78.736249-153.808038-102.128005C629.167536 55.056943 570.307987 43.603077 509.933945 43.603077c-60.375066 0-119.232568 11.453866-174.939311 34.044374-57.68377 23.391756-109.431342 57.753355-153.805992 102.128005-44.37465 44.37465-78.734202 96.122221-102.125959 153.805992C56.473199 389.288191 45.019333 448.145693 45.019333 508.519736c0 60.375066 11.453866 119.231545 34.044374 174.939311 23.391756 57.68377 57.751309 109.431342 102.125959 153.805992 44.37465 44.37465 96.122221 78.734202 153.805992 102.126982 55.706743 22.589484 114.565269 34.044374 174.939311 34.044374 60.374042 0 119.232568-11.453866 174.939311-34.044374 57.684794-23.391756 109.433388-57.752332 153.810085-102.126982 44.373627-44.373627 78.733179-96.122221 102.125959-153.805992 22.589484-55.706743 34.044374-114.564245 34.044374-174.939311C974.85265 448.145693 963.398784 389.288191 940.809299 333.581448zM905.988236 669.338445c-21.491477 52.999075-53.075823 100.559277-93.874017 141.357472-40.800241 40.799218-88.361467 72.383564-141.360542 93.875041-51.201126 20.761859-105.308441 31.289634-160.819732 31.289634-55.512315 0-109.61963-10.527774-160.818709-31.289634-52.999075-21.491477-100.558254-53.075823-141.357472-93.874017-40.799218-40.799218-72.382541-88.35942-93.875041-141.358495-20.762883-51.200102-31.289634-105.307418-31.289634-160.818709 0-55.511291 10.527774-109.618607 31.289634-160.818709 21.491477-52.999075 53.075823-100.558254 93.875041-141.357472 40.799218-40.800241 88.358397-72.384587 141.357472-93.877087 51.200102-20.762883 105.307418-31.290657 160.818709-31.290657 55.511291 0 109.618607 10.527774 160.819732 31.290657 52.999075 21.491477 100.5603 53.076846 141.359518 93.877087 40.799218 40.799218 72.383564 88.358397 93.875041 141.357472 20.761859 51.200102 31.289634 105.307418 31.289634 160.818709C937.278893 564.031027 926.750095 618.138342 905.988236 669.338445z" fill="#FF9000" p-id="4621"></path><path d="M810.369481 489.052359c-0.014326 0-0.029676 0-0.042979 0l-281.56577 0.635473 0.590448-282.148032c0.021489-10.376325-8.372691-18.804275-18.747993-18.826787-0.014326 0-0.025583 0-0.039909 0-10.356882 0-18.764366 8.385994-18.785855 18.747993l-0.591471 282.311761-281.725406 0.636496c-10.376325 0.023536-18.767436 8.453533-18.744923 18.829857 0.023536 10.361999 8.429996 18.744923 18.785855 18.744923 0.014326 0 0.029676 0 0.042979 0l281.561677-0.635473-0.590448 282.152125c-0.021489 10.375302 8.372691 18.804275 18.747993 18.825764 0.014326 0 0.025583 0 0.039909 0 10.355859 0 18.764366-8.385994 18.785855-18.747993l0.590448-282.314831 281.728476-0.636496c10.376325-0.023536 18.768459-8.453533 18.744923-18.829857C829.131801 497.435283 820.726364 489.052359 810.369481 489.052359z" fill="#FF9000" p-id="4622"></path></svg>