<?xml version="1.0" standalone="no"?><!DOCTYPE svg PUBLIC "-//W3C//DTD SVG 1.1//EN" "http://www.w3.org/Graphics/SVG/1.1/DTD/svg11.dtd"><svg t="1706276880403" class="icon" viewBox="0 0 1024 1024" version="1.1" xmlns="http://www.w3.org/2000/svg" p-id="1225" xmlns:xlink="http://www.w3.org/1999/xlink" width="64" height="64"><path d="M554.511515 360.603152c-0.310303 0-0.589576 0.217212-0.899879 0.217212h-123.655757l0.465454-123.035152c0-0.186182 0.093091-0.310303 0.124122-0.496485 0-0.248242-0.124121-0.465455-0.124122-0.744727v-1.396364c0-0.465455 0.248242-0.868848 0.217212-1.334303-0.093091-2.916848-1.086061-5.461333-1.923878-8.067878-0.093091-0.310303-0.093091-0.589576-0.217212-0.868849a30.844121 30.844121 0 0 0-30.192485-21.162667 30.906182 30.906182 0 0 0-29.478788 28.144485c-0.124121 0.961939-0.620606 1.768727-0.682667 2.792728 0 0.217212 0.124121 0.434424 0.124121 0.651636 0 0.248242-0.124121 0.465455-0.124121 0.713697 0 0.310303 0.186182 0.527515 0.217212 0.868848l-0.465454 123.935031h-122.259394c-0.186182 0-0.310303-0.093091-0.527515-0.124122-0.248242 0-0.496485 0.124121-0.744728 0.124122h-1.365333c-0.496485 0-0.899879-0.217212-1.365333-0.217212-2.916848 0.124121-5.492364 1.148121-8.067879 1.954909l-0.868849 0.217212a30.844121 30.844121 0 0 0-21.038545 30.285575 30.813091 30.813091 0 0 0 28.237576 29.354667c0.961939 0.155152 1.799758 0.651636 2.792727 0.682667 0.217212 0 0.434424-0.124121 0.682667-0.124121 0.248242 0 0.434424 0.124121 0.682666 0.124121 0.310303 0 0.558545-0.186182 0.868849-0.217212h122.755879l-0.465455 124.741818c0 0.434424-0.248242 0.806788-0.217212 1.272242 0.620606 17.252848 15.080727 30.72 32.333576 30.099394 17.283879-0.589576 30.75103-15.049697 30.161454-32.271515 0-0.310303-0.186182-0.589576-0.217212-0.899879l0.465455-122.94206h125.920969c0.465455 0 0.837818 0.248242 1.272243 0.217212a31.278545 31.278545 0 0 0-2.420364-62.49503" fill="#1296db" p-id="1226"></path><path d="M399.297939 739.29697c-181.775515 0-329.69697-147.921455-329.696969-329.69697S217.522424 79.90303 399.297939 79.90303 728.994909 227.824485 728.994909 409.6c0 84.340364-31.837091 164.584727-89.615515 225.962667a326.62497 326.62497 0 0 1-240.081455 103.734303z m588.8 215.226182l-0.620606-0.620607c-0.403394-0.465455-0.744727-0.868848-1.179151-1.241212l-282.56194-296.928969a389.926788 389.926788 0 0 0 87.319273-246.132364c0-215.970909-175.755636-391.757576-391.757576-391.757576S7.540364 193.629091 7.540364 409.6s175.755636 391.757576 391.757575 391.757576c96.566303 0 190.091636-36.491636 261.585455-100.600243l282.220606 296.525576 0.093091-0.062061c5.988848 6.299152 14.273939 10.302061 23.58303 9.929697 17.252848-0.682667 30.68897-15.204848 30.006303-32.488727a30.906182 30.906182 0 0 0-8.781576-20.076606l0.093091-0.06206z" fill="#1296db" p-id="1227"></path></svg>