<?xml version="1.0" standalone="no"?><!DOCTYPE svg PUBLIC "-//W3C//DTD SVG 1.1//EN" "http://www.w3.org/Graphics/SVG/1.1/DTD/svg11.dtd"><svg t="1706280389829" class="icon" viewBox="0 0 1024 1024" version="1.1" xmlns="http://www.w3.org/2000/svg" p-id="3450" xmlns:xlink="http://www.w3.org/1999/xlink" width="64" height="64"><path d="M546.85412598 791.0802002L898.4440918 439.49023437c10.29968262-10.29968262 10.29968262-27.02636719 0-37.3260498L614.74963379 118.63452148c-10.29968262-10.29968262-27.02636719-10.29968262-37.32604981 0L164.69470214 531.36340333c-41.19873047 41.19873047-41.19873047 107.94067383 1e-8 149.13940428l224.20349121 222.72033692c19.77539063 19.6105957 46.47216797 30.65185547 74.32250977 30.65185547H802.0390625c14.58435059 0 26.3671875-11.78283692 26.3671875-26.3671875s-11.78283692-26.3671875-26.3671875-26.3671875H584.09777833c-46.96655273 0-70.53222656-56.77185059-37.24365236-90.06042481z m58.58459472-607.18688965l227.74658203 227.74658203c5.10864258 5.10864258 5.10864258 13.51318359 0 18.62182617L591.01916504 672.34545898l-246.36840821-246.3684082 242.08374025-242.1661377c5.19104004-5.10864258 13.51318359-5.10864258 18.70422362 0.08239747zM202.02075195 568.60705567l105.38635255-105.38635255 246.36840819 246.36840821-105.38635253 105.38635254c-20.59936523 20.59936523-53.97033692 20.59936523-74.56970216-1e-8L202.02075195 643.25915528c-20.59936523-20.59936523-20.59936523-54.05273438 0-74.65209962z" fill="#1890ff" p-id="3451"></path></svg>