<?xml version="1.0" standalone="no"?><!DOCTYPE svg PUBLIC "-//W3C//DTD SVG 1.1//EN" "http://www.w3.org/Graphics/SVG/1.1/DTD/svg11.dtd"><svg t="1706280403639" class="icon" viewBox="0 0 1024 1024" version="1.1" xmlns="http://www.w3.org/2000/svg" p-id="4456" xmlns:xlink="http://www.w3.org/1999/xlink" width="64" height="64"><path d="M512.341333 799.274667c-164.522667-183.424-246.741333-329.216-246.741333-437.333334 0-162.218667 110.464-241.493333 246.741333-241.493333 136.234667 0 246.698667 79.317333 246.698667 241.450667 0 108.117333-82.261333 253.866667-246.698667 437.418666z m0-313.258667c75.690667 0 137.002667-58.453333 137.002667-130.56s-61.312-130.56-137.002667-130.56c-75.690667 0-137.045333 58.453333-137.045333 130.56s61.354667 130.56 137.045333 130.56z m-170.666666 155.733333l38.272 36.992c-71.424 16.896-118.954667 46.976-118.954667 81.322667 0 52.906667 112.384 95.658667 250.965333 95.658667 138.624 0 251.008-42.837333 251.008-95.658667 0-33.962667-46.506667-63.786667-116.650666-80.725333l38.016-36.864c77.909333 25.941333 128.853333 68.906667 128.853333 117.589333 0 79.274667-134.826667 143.445333-301.226667 143.445333-166.314667 0-301.141333-64.170667-301.141333-143.36 0-49.152 51.84-92.501333 130.901333-118.4h-0.042666z" fill="#0095FF" p-id="4457"></path></svg>