<?xml version="1.0" standalone="no"?><!DOCTYPE svg PUBLIC "-//W3C//DTD SVG 1.1//EN" "http://www.w3.org/Graphics/SVG/1.1/DTD/svg11.dtd"><svg t="1706276104948" class="icon" viewBox="0 0 1024 1024" version="1.1" xmlns="http://www.w3.org/2000/svg" p-id="29647" xmlns:xlink="http://www.w3.org/1999/xlink" width="64" height="64"><path d="M919.466667 264.533333V832c0 46.933333-38.4 85.333333-85.333334 85.333333h-640c-46.933333 0-85.333333-38.4-85.333333-85.333333V192c0-46.933333 38.4-85.333333 85.333333-85.333333h567.466667c6.4 0 10.666667 2.133333 14.933333 6.4l136.533334 136.533333c4.266667 4.266667 6.4 8.533333 6.4 14.933333z" fill="#1890FF" p-id="29648"></path><path d="M322.133333 106.666667h384v213.333333h-384zM258.133333 640h512v277.333333h-512z" fill="#FFFFFF" p-id="29649"></path><path d="M599.466667 149.333333h64v128h-64zM364.8 725.333333h298.666667v21.333334h-298.666667zM364.8 810.666667h298.666667v21.333333h-298.666667z" fill="#69C0FF" p-id="29650"></path></svg>