<?xml version="1.0" standalone="no"?><!DOCTYPE svg PUBLIC "-//W3C//DTD SVG 1.1//EN" "http://www.w3.org/Graphics/SVG/1.1/DTD/svg11.dtd"><svg t="1706276857401" class="icon" viewBox="0 0 1025 1024" version="1.1" xmlns="http://www.w3.org/2000/svg" p-id="35775" xmlns:xlink="http://www.w3.org/1999/xlink" width="64.0625" height="64"><path d="M1010.176 925.248c19.712 19.392 19.584 50.688-0.128 70.144-20.032 19.52-52.032 19.52-71.552 0.256l-254.784-265.408c-162.688 137.728-407.936 131.648-561.472-18.816-161.024-158.08-160.32-414.656 1.472-573.376 161.792-158.784 423.616-159.488 584.448-1.536 150.08 147.072 159.552 379.904 29.248 539.456 3.648 2.176 7.232 4.992 11.136 8.832L1010.176 925.248 1010.176 925.248zM753.344 426.432c0-189.824-153.856-343.68-343.808-343.68-189.824 0-343.744 153.856-343.744 343.68 0 189.888 153.92 343.68 343.744 343.68C599.488 770.112 753.344 616.32 753.344 426.432L753.344 426.432zM196.736 450.176c-19.328 0-34.88-14.144-34.88-31.808 0-17.664 15.616-31.872 34.88-31.872l441.792 0c19.328 0 34.88 14.208 34.88 31.872 0 17.6-15.552 31.808-34.88 31.808L196.736 450.176 196.736 450.176z" fill="#1296db" p-id="35776"></path></svg>