<?xml version="1.0" standalone="no"?><!DOCTYPE svg PUBLIC "-//W3C//DTD SVG 1.1//EN" "http://www.w3.org/Graphics/SVG/1.1/DTD/svg11.dtd"><svg t="1706261751249" class="icon" viewBox="0 0 1024 1024" version="1.1" xmlns="http://www.w3.org/2000/svg" p-id="10257" xmlns:xlink="http://www.w3.org/1999/xlink" width="32" height="32"><path d="M500.87 1024C224.248 1024 0 799.754 0 523.13 0 246.508 224.248 22.262 500.87 22.262S1001.74 246.51 1001.74 523.132 777.492 1024 500.87 1024z" fill="#CFDBE6" p-id="10258"></path><path d="M1001.74 523.13c0-276.624-224.248-500.87-500.87-500.87V1024c276.622 0 500.87-224.246 500.87-500.87z" fill="#A3B8CC" p-id="10259"></path><path d="M500.87 890.434c-202.532 0-367.304-164.772-367.304-367.304S298.338 155.826 500.87 155.826 868.174 320.6 868.174 523.13s-164.772 367.304-367.304 367.304z" fill="#F25030" p-id="10260"></path><path d="M868.174 523.13c0-202.532-164.772-367.304-367.304-367.304v734.608c202.532 0 367.304-164.772 367.304-367.304z" fill="#D9472C" p-id="10261"></path><path d="M500.87 756.87c-128.884 0-233.74-104.856-233.74-233.74s104.856-233.74 233.74-233.74 233.74 104.856 233.74 233.74-104.856 233.74-233.74 233.74z" fill="#E6F3FF" p-id="10262"></path><path d="M734.608 523.13c0-128.882-104.858-233.74-233.74-233.74v467.478c128.884 0.002 233.74-104.856 233.74-233.738z" fill="#CFDBE6" p-id="10263"></path><path d="M500.87 623.304c-55.238 0-100.174-44.936-100.174-100.174s44.936-100.174 100.174-100.174 100.174 44.936 100.174 100.174-44.936 100.174-100.174 100.174z" fill="#F25030" p-id="10264"></path><path d="M601.044 523.13c0-55.238-44.936-100.174-100.174-100.174v200.348c55.238 0 100.174-44.936 100.174-100.174z" fill="#D9472C" p-id="10265"></path><path d="M477.266 546.734c-13.04-13.04-13.04-34.182 0-47.222l258.58-258.58 47.222 47.222-258.58 258.58c-13.04 13.04-34.182 13.04-47.222 0z" fill="#6B7A99" p-id="10266"></path><path d="M477.266 546.734c13.038 13.038 34.182 13.04 47.222 0l258.58-258.58-23.612-23.612-282.19 282.192z" fill="#5A6680" p-id="10267"></path><path d="M985.812 100.522l-72.722 10.39 10.39-72.722c4.564-31.64-34-51-56.668-28.332l-133.638 133.638c-5.038 5.038-8.504 11.646-9.446 18.888l-16.684 116.798c-1.574 11.016 2.362 21.25 9.444 28.332 7.084 7.084 17.314 11.02 28.332 9.444l116.798-16.684c7.242-0.944 13.85-4.41 18.888-9.446l133.638-133.638c22.668-22.668 3.306-61.23-28.332-56.668z" fill="#32BBFF" p-id="10268"></path><path d="M1014.142 157.188l-133.638 133.638c-5.038 5.038-11.646 8.504-18.888 9.446l-116.798 16.684c-11.016 1.574-21.25-2.362-28.332-9.444l196.604-196.604 72.722-10.39c31.638-4.558 51 34.004 28.33 56.67z" fill="#2C9FD9" p-id="10269"></path></svg>