<?xml version="1.0" standalone="no"?><!DOCTYPE svg PUBLIC "-//W3C//DTD SVG 1.1//EN" "http://www.w3.org/Graphics/SVG/1.1/DTD/svg11.dtd"><svg t="1706362855645" class="icon" viewBox="0 0 1409 1024" version="1.1" xmlns="http://www.w3.org/2000/svg" p-id="19075" xmlns:xlink="http://www.w3.org/1999/xlink" width="88.0625" height="64"><path d="M1048.271356 529.773697L1223.33366 187.102615l26.565132 19.111606-174.871188 342.671082zM747.263574 282.278409l28.09406-19.111605 194.938373 245.010779-27.902944 19.111606zM474.732083 813.581035l195.702838-514.484413 34.209773 14.333704-195.702837 514.675529zM170.475328 661.070425L191.306977 637.754267l177.164581 197.613998-20.83165 23.125042z" fill="#1300BC" p-id="19076"></path><path d="M130.340957 713.818456a130.341148 130.341148 0 1 1 130.341147-130.532264 130.150032 130.150032 0 0 1-130.341147 130.532264z m0-210.227658A79.313162 79.313162 0 1 0 210.418583 583.286192a79.504278 79.504278 0 0 0-79.313162-78.93093zM705.026926 345.155591a130.341148 130.341148 0 1 1 129.958916-130.532264 130.341148 130.341148 0 0 1-129.958916 130.532264z m0-210.227658a78.357581 78.357581 0 1 0 56.18812 22.74281 79.504278 79.504278 0 0 0-56.18812-22.74281zM430.393159 1023.999809a130.150032 130.150032 0 1 1 130.341148-130.150032 130.150032 130.150032 0 0 1-130.341148 130.150032z m0-210.227658a79.313162 79.313162 0 1 0 79.313162 79.313162 79.313162 79.313162 0 0 0-79.313162-79.313162zM992.083237 735.223454a130.341148 130.341148 0 1 1 130.532264-130.150032 130.150032 130.150032 0 0 1-130.532264 130.150032z m0-210.227658a79.313162 79.313162 0 1 0 56.188119 23.125042 79.313162 79.313162 0 0 0-56.188119-23.125042zM1329.40307 9.938035a130.150032 130.150032 0 1 0 80.459858 120.403113 130.150032 130.150032 0 0 0-80.459858-120.403113zM1279.52178 210.227658a79.313162 79.313162 0 1 1 79.313162-79.313162A79.313162 79.313162 0 0 1 1279.52178 210.227658z" fill="#1300BC" p-id="19077"></path></svg>