<?xml version="1.0" encoding="UTF-8"?>
<svg width="16" height="16" enable-background="new 0 0 122.879 122.867" version="1.1" viewBox="0 0 16 16" xml:space="preserve" xmlns="http://www.w3.org/2000/svg"><g transform="matrix(.12293 0 0 .12294 .39712 .49812)" fill="#ffffff" stroke="#000000" stroke-width="8.1347"><path d="m83.88 0.451 38.547 38.549c0.603 0.601 0.603 1.585 0 2.188l-13.128 13.125c-0.602 0.604-1.586 0.604-2.187 0l-3.732-3.73-17.303 17.3c3.882 14.621 0.095 30.857-11.37 42.32-0.266 0.268-0.535 0.529-0.808 0.787-1.004 0.955-0.843 0.949-1.813-0.021l-24.489-24.489-47.597 36.387 36.399-47.584-24.525-24.523c-0.978-0.98-0.896-0.826 0.066-1.837 0.24-0.251 0.485-0.503 0.734-0.753 11.463-11.463 27.702-15.253 42.322-11.37l17.301-17.3-3.733-3.732c-0.601-0.601-0.601-1.585 0-2.188l13.127-13.129c0.604-0.601 1.588-0.601 2.189 0z" clip-rule="evenodd" fill="#ffffff" fill-rule="evenodd" stroke="#000000" stroke-width="8.1347"/></g></svg>
